<svg xmlns="http://www.w3.org/2000/svg" width="512" height="512"><rect width="100%" height="100%" fill="none"/><g class="currentLayer"><path fill="#ffffff" d="M403.558 208.35l13.955-85.666c.944-5.643-2.865-10.982-8.508-11.926a10.33 10.33 0 0 0-1.696-.142H104.836c-5.72-.074-10.418 4.504-10.491 10.224-.008.6.036 1.2.132 1.792l43.973 266.943a14.059 14.059 0 0 0 4.731 8.37l-.018.02a14.036 14.036 0 0 0 9.064 3.419h211.006a10.359 10.359 0 0 0 10.359-8.701l20.04-123.399 6.622-40.65h-97.418l-12.839 74.912h-67.331l-18.231-95.196h199.123z" class="selected"/></g></svg>